<svg id="Draw_Layer" data-name="Draw Layer" xmlns="http://www.w3.org/2000/svg" viewBox="0 0 1861.52 1861.53"><defs><style>.cls-1{fill:#88d7af;}.cls-2{fill:#024d29;}</style></defs><path class="cls-1" d="M489.64,1406l-6.52,3.85h0s0,0,0,0l-.43.26a29.18,29.18,0,0,0-9.27,12.4A281.61,281.61,0,0,0,458,1456.42c-5.8,15.29-9.81,30.88-12.65,42.75a309.81,309.81,0,0,0-8.46,76.06,347.74,347.74,0,0,0,3.18,44.84c.8,5.6,1.8,11.3,3,16.93a892.09,892.09,0,0,0,90.39,81.22c6.5,5,13.28,10,20.2,15l1,.72c2,1.42,4,2.84,6,4.24a385.91,385.91,0,0,1-25.31-34.13,255.44,255.44,0,0,1-14.83-26.16,234.36,234.36,0,0,1-11.77-29.17,279.19,279.19,0,0,1-11-66.22,309.7,309.7,0,0,1,7.59-74c2-7.88,4.27-15.55,6.82-22.85a279,279,0,0,1,18.73-43l1.74-7.26a27.89,27.89,0,0,0-2.5-14.68,30.27,30.27,0,0,0-17.37-15.45,32.3,32.3,0,0,0-23.06.73Z" transform="translate(-118.89 -117.32)"/><path class="cls-1" d="M605.58,1001.78a31.23,31.23,0,0,0-14.57,6.28q-7.51,6.86-14.43,14.23l0,0h0A273.7,273.7,0,0,0,544,1064.71a429.45,429.45,0,0,0-34.95,69.94,539.6,539.6,0,0,0-21.72,69.4,636.39,636.39,0,0,0-13.9,74.43c-1.32,10.89-2.26,21.53-2.78,31.63-.51,9.35-.25,18.72.06,27.52.23,6.87.76,13.9,1.56,20.88a284.48,284.48,0,0,0,8,41.3c.88,3.21,1.83,6.6,2.83,10.07h0A380.06,380.06,0,0,0,496,1446.4a349.91,349.91,0,0,0,17.31,35.86,0,0,0,0,0,0,0h0v0h0a511.75,511.75,0,0,0,35,54.25l1.92,1.69,4.08,3.62a31.67,31.67,0,0,0,14.64,5.14c.9.09,1.88.13,2.91.13a31.58,31.58,0,0,0,19.44-6.61,28.79,28.79,0,0,0,11-19.66v-.42l-.11-3.49-.12-3.5a28.41,28.41,0,0,0-6.57-13.83c-4.42-6.06-9.13-12.59-13.64-19.34A363,363,0,0,1,543,1398.62a282.7,282.7,0,0,1-11.73-66.57c-.3-20,2-40,4-55.13,2.41-18.11,5.81-36.65,10.12-55.1,10.46-42.43,24.07-78.94,41.61-111.63,11.52-20.39,23.77-37.4,37.45-52,1.93-1.9,3.7-3.56,5.42-5.1h0l.09-.08,5.59-5.72a28,28,0,0,0-1.41-35.26,31.2,31.2,0,0,0-20.68-10.47l-7.82.22Z" transform="translate(-118.89 -117.32)"/><path class="cls-1" d="M1495.59,1110a31.08,31.08,0,0,0-20.16,12c-4.34,5.88-6.84,14.23-5.18,21.39l.93,4h0l0,0c14.15,61.2,26.06,116.51,28.44,173.85a394.16,394.16,0,0,1-2.46,55.93,465.4,465.4,0,0,1-9.46,51.15c-12.46,50.65-30.36,97.8-53.21,140.13-4.3,7.68-8.77,15.15-13.28,22.18-3.74,5.89-7.75,11.79-11.28,17l-4.67,6.9c-10.62,15.87-21.2,31.24-33.78,44.81a130.71,130.71,0,0,1-13.72,11.7,26.91,26.91,0,0,0-10.84,19,28.61,28.61,0,0,0,6.67,21.91,31.19,31.19,0,0,0,20.63,10.45,25.86,25.86,0,0,0,2.92.14,32.83,32.83,0,0,0,19.45-6.62,134.22,134.22,0,0,0,16.71-14.69,283.06,283.06,0,0,0,20-22.4c8.61-10.92,16.41-22.56,24-33.82l2.46-3.67c7.75-11.57,16.67-25.07,24.45-38.85,9.62-17.07,17.71-32.94,24.73-48.53,1.89-4.24,3.82-8.64,5.73-13.1h0a608.85,608.85,0,0,0,21.74-60.63h0c1.7-5.67,3.35-11.43,4.91-17.12,4.74-17.41,8.81-34.86,12.1-51.86a381.53,381.53,0,0,0,6.44-48.83c1.08-17,1-35.45-.24-58.07-.89-16.13-2.63-33.15-5.33-52-4.65-32.58-11.35-64.45-20-102.28q-1.82-7.92-3.65-15.85l-1.11-3.54-1.15-3.69a31,31,0,0,0-5.36-7.81l-.14-.15a30.91,30.91,0,0,0-4.82-4,31.87,31.87,0,0,0-17.66-5.3,32.49,32.49,0,0,0-4.82.37Z" transform="translate(-118.89 -117.32)"/><path class="cls-1" d="M1842.69,1232.89a123.4,123.4,0,0,0-17.5,2.57,213.6,213.6,0,0,0-25.07,7.14l-.28.17-6.68,4a29.19,29.19,0,0,0-9.27,12.39,28,28,0,0,0,5.1,28.53,180.49,180.49,0,0,1,19.16,20.46q2,2.54,4,5.13h0l0,0h0a179.18,179.18,0,0,0-29.68-4.69c-3.42-.22-7-.33-10.74-.33-6.58,0-13.38.33-20.78,1a170.08,170.08,0,0,0-24.65,4.2c-20.19,4.91-37.86,11.54-54,20.26-18.78,10.16-34.35,21-47.58,33.21-15.56,14.34-27.54,28.52-36.64,43.37a198.56,198.56,0,0,0-14.25,27.52c-4,9.76-6.55,19.85-8.65,29.29a125.1,125.1,0,0,0-2.28,14l0,.38c-.31,3.16-.5,6.34-.57,9.52a153,153,0,0,0,2.12,30.74,92.1,92.1,0,0,0,2.49,10.18c.9,3,1.82,6,2.82,9h0c1,3,2,5.71,3,8.2,3.83,9.19,9.14,17.51,14.69,25.92,11.31,17.08,26.38,30.86,38.24,40.94a231.17,231.17,0,0,0,28.4,20.53c8.12-8.38,16.18-17,24.06-25.82l1.22-1.38-3.42,3.78c6.08-6.75,12.26-13.81,18.35-21l.1-.1,0,0a236.78,236.78,0,0,1-33.72-23.67,169.4,169.4,0,0,1-24-27.25,116.89,116.89,0,0,1-10.21-21.17,109.66,109.66,0,0,1-3.35-20.86,124.55,124.55,0,0,1,2.61-25.08,142.9,142.9,0,0,1,10.88-27.7,174.82,174.82,0,0,1,22.89-30.55,204.32,204.32,0,0,1,34.94-27.3,200.63,200.63,0,0,1,39.15-16.86,174.53,174.53,0,0,1,33.58-5.31h.18a147.53,147.53,0,0,1,26.6,2.38,132,132,0,0,1,22.48,7.86c2.64,1.43,5.18,2.92,7.51,4.44l.32.2c.49-1.13,1-2.26,1.46-3.39a884.9,884.9,0,0,0,38.81-115.7c.81-3.12,1.61-6.23,2.38-9.35q2.41-9.73,4.6-19.53c-1.9-.24-3.58-.4-5.13-.51-2.82-.2-5.75-.3-8.94-.3-4.5,0-9.19.18-14.76.59Z" transform="translate(-118.89 -117.32)"/><path class="cls-1" d="M1523.08,1480.67a106,106,0,0,0-17.72,2.62l-7.6,2.15a30.56,30.56,0,0,0-12.56,9.84,28.22,28.22,0,0,0-5.18,21.39,29.18,29.18,0,0,0,12.6,19.18l7,3.51a32.11,32.11,0,0,0,15,1.49l0-.06.4,0a110,110,0,0,1,18.5-2.67c11.66,0,23.41,1.36,34.86,2.66l.17,0,1.12.16v0l6,.68c16.56,1.82,31.82-10.59,33.41-26.17a28.26,28.26,0,0,0-6.84-21.31,31.5,31.5,0,0,0-20.67-10.47c-6.28-.69-12.55-1.46-18.83-2.1h0a.09.09,0,0,0,0,0c-5.89-.61-10.75-1-15.28-1.21-2.78-.14-5.74-.21-8.81-.21h-1.16c-.34,0-.68,0-1,0-4.48,0-9,.23-13.43.51Z" transform="translate(-118.89 -117.32)"/><path class="cls-1" d="M625.85,673.84a153.15,153.15,0,0,0-17.42,2.21c-7.52,1.37-14.87,3.48-22.09,5.55-5.6,1.63-11.22,3.54-16.69,5.7-11,4.35-22,10.22-35.85,19a166.18,166.18,0,0,0-26.18,20.83c-11,10.7-19.18,20.23-25.68,30a210.07,210.07,0,0,0-10.89,19,127.7,127.7,0,0,0-6.64,15.36,184.28,184.28,0,0,0-5.64,20.86A111.5,111.5,0,0,0,456.39,829a165,165,0,0,0,.24,22,126.18,126.18,0,0,0,2.73,19,208.08,208.08,0,0,0,6.75,23.16,157.21,157.21,0,0,0,7.63,18.22,185.09,185.09,0,0,0,9.05,16.19c5.1,8.22,10,15.47,15.07,22.16a258.11,258.11,0,0,0,26.88,30.12,404.32,404.32,0,0,0,36,31c4.19,3.2,8.76,6.54,13.61,9.94l1.32.93q9.24,6.35,18.85,12.2c11.39,7,23.19,13.23,35.18,19.22l0,0,4.91,2.44c10,5,20.42,9.35,30.46,13.62l.14.06.32.14c9.21,3.91,18.89,7.91,29.56,12.23,20.36,8.21,41.79,16.4,63.7,24.33,47,17,94.59,32,141.55,44.73a1515.09,1515.09,0,0,0,158.62,34.14c53.74,8.45,105.61,12.81,154.18,13h2.83c55.92,0,105-4.88,150-14.94a533,533,0,0,0,73.78-22c9.71-3.71,19.74-8,29.85-12.76l.37-.17,1.63-.78c12.42-6,24.31-12.77,36.12-19.78q7.34-4.33,14.42-9h0a360.64,360.64,0,0,0,41.29-31.84c13-11.65,22.93-22,31.15-32.54a155.93,155.93,0,0,0,10.67-15.74,199.48,199.48,0,0,0,12.06-23.23,128.53,128.53,0,0,0,5.91-17.07,161,161,0,0,0,5-24.61c.88-7.51.6-15.17.33-22.59l0-.8a96.82,96.82,0,0,0-2.57-18.62,143.3,143.3,0,0,0-7.32-22.59c-3.22-7.71-7.86-14.81-12.34-21.69l-.67-1a109.66,109.66,0,0,0-12.15-15.13c-2.56-2.73-5.31-5.25-7.43-7.15-4.49-4-9.31-8.3-14.61-12.28a121.22,121.22,0,0,0-18.24-11.15,185.2,185.2,0,0,0-24.66-10.67c-8.26-2.74-16.64-4.49-25.94-6.34a188.61,188.61,0,0,0-22.33-3c-7-.58-14.54-.86-23.1-.86-8.26,0-16.37.25-25.35.55-8.37.27-16.7.73-25.61,1.21h-.15c-6.21.35-12.42.7-18.63,1l-7.6,2.15a30.5,30.5,0,0,0-12.56,9.84,28.22,28.22,0,0,0-5.19,21.39,29.18,29.18,0,0,0,12.61,19.18l7,3.5a32.15,32.15,0,0,0,15.45,1.43l7.36-.37.18,0,9-.49.48,0c8.79-.47,17.87-1,26.89-1.32,3.25-.06,6.27-.09,9.21-.09,17.85,0,32.52,1.2,46.17,3.78a144.9,144.9,0,0,1,25.21,8.65,129.83,129.83,0,0,1,20.07,13.54,119.57,119.57,0,0,1,15,17.19,69.62,69.62,0,0,1,11.31,36.1,116.41,116.41,0,0,1-2.33,21.8,137.42,137.42,0,0,1-10.17,25.85,164.13,164.13,0,0,1-21.17,28.27,344.68,344.68,0,0,1-63,48.48,424.76,424.76,0,0,1-91.72,38.62,534.87,534.87,0,0,1-53.72,11.68q-10.71,1.79-21.5,3.18l-.2,0-.48.07q-30.65,3.93-63.45,5.12c-6.55.15-13.19.23-19.75.23-70.35,0-145.08-8.67-228.47-26.51q-53.37-11.76-107.86-27.79h0l-1.88-.55-1-.3-.88-.26-1.86-.55-.08,0q-21.63-6.43-43.09-13.44l-.48-.16-1.29-.42-1.22-.4-.52-.17q-58.17-19.11-116.81-42.77l-.47-.19c-19.06-7.68-38.76-15.63-57.57-24.77a396.62,396.62,0,0,1-77.57-51.63,266.26,266.26,0,0,1-41-46.36,175,175,0,0,1-16.7-34.73,134.37,134.37,0,0,1-4.77-27,115.42,115.42,0,0,1,2.29-22.19,126,126,0,0,1,9.11-23.27,148.86,148.86,0,0,1,18.37-24.55,171.31,171.31,0,0,1,28-21.88,174.78,174.78,0,0,1,32.68-14,161.67,161.67,0,0,1,30-4.72,144,144,0,0,1,25.57,2.28A133.34,133.34,0,0,1,683,740.16a0,0,0,0,0,0,0l2.66,1.18c1.58.85,3.13,1.73,4.68,2.63l7,3.51a32.18,32.18,0,0,0,15.46,1.42,31,31,0,0,0,20.16-12,28.22,28.22,0,0,0,5.19-21.39c-1.25-7.31-5.83-15.2-12.61-19.19a174.74,174.74,0,0,0-28-13.44h0v0h0c-3.19-1.17-6.37-2.21-9.47-3.11a167.35,167.35,0,0,0-39.6-6.51c-1.71-.08-3.62-.11-6-.11-4.89,0-10.17.19-16.61.62Z" transform="translate(-118.89 -117.32)"/><path class="cls-1" d="M696.91,698a30,30,0,0,0-16.25,16.52q-.85,3.64-1.73,7.26a27.87,27.87,0,0,0,2.5,14.68c.5,1.25,1,2.5,1.54,3.73h0c4.84,11.37,11.41,23,20.66,36.62a189.79,189.79,0,0,0,25,29.38,283,283,0,0,0,35.94,29.61,300.88,300.88,0,0,0,35,20.63A477.58,477.58,0,0,0,844,876.48c12.48,4.82,25.67,9.27,40.33,13.61,26.31,7.78,55.47,14.48,89.16,20.49,25.42,4.54,51.93,8.32,78.81,11.22,16.06,1.74,33,3,50.23,3.63,8.64.34,17.59.51,27.38.51s20.27-.18,32.07-.53a634.29,634.29,0,0,0,106.43-11.9c11.86-2.4,24.1-5.35,36.39-8.77h.1q10.44-2.91,20.74-6.21A360.29,360.29,0,0,0,1372.48,880c3.54-1.7,7-3.49,10.49-5.32l7-4.12a29,29,0,0,0,9.27-12.41,28,28,0,0,0-.76-21.93,30.23,30.23,0,0,0-17.37-15.46l-7.63-1.65a31.85,31.85,0,0,0-15.42,2.38,328,328,0,0,1-31.2,14.46l0,0c-11.44,4.61-23.71,8.85-36.47,12.6-40.58,11.08-86,17.58-135.13,19.33-5.84.13-11.86.21-17.88.21a750.52,750.52,0,0,1-81-4.4c-26.4-2.89-52.81-6.69-78.5-11.29-9-1.63-18.09-3.4-27-5.28-45.95-10.23-84.31-23-117.27-38.93C813.1,797.7,795,785.83,779.81,772.91,775.27,768.73,771,764.4,767,760v0a186.08,186.08,0,0,1-16-20.07,170.63,170.63,0,0,1-13.66-27.22c-2.81-7.1-10.06-12.9-17.37-15.46a32.3,32.3,0,0,0-23.06.73Z" transform="translate(-118.89 -117.32)"/><path class="cls-1" d="M673.33,350.84l-5.59,5.72a28.32,28.32,0,0,0-5.42,13.95c0,1.32.07,2.64.11,4l.05.17c1,32.14,3.16,64.92,6.51,97.42,3.55,34.7,8.22,68.93,11.89,94.87,2.35,16.55,4.83,33.44,7,48.34l.1.65.3,2.05c2.27,15.49,4.32,29.47,6.34,43.62,1,6.77,1.91,13.55,2.81,20.35,0,.33.09.66.14,1h0v0h0q1.77,13,3.45,25.91c2,15.6,4.08,31.23,5.35,46.9q.15,1.86.27,3.72c.76,2.41,1.51,4.82,2.27,7.23a29.49,29.49,0,0,0,10.34,11.95,32,32,0,0,0,22.48,4.93,31,31,0,0,0,20.16-12q1.85-3.35,3.68-6.69A29,29,0,0,0,767,760l0,0a27.68,27.68,0,0,0,.1-9.78c-.94-13.93-2.72-27.86-4.44-41.35l-.7-5.5c-1.8-14.2-3.82-29.22-6.38-47.26-2.29-16.2-4.71-32.67-7-48.61l-.17-1.13L748,604c-2-13.94-4.16-28.36-6.18-42.52-5.32-37.36-11.27-81.59-15-126.75-1.57-18.73-2.76-37.48-3.45-56.26l-.06-2.31c-.08-2.48-.17-5-.25-7.45a28.27,28.27,0,0,0-6.59-13.87,31.13,31.13,0,0,0-20.67-10.47c-1-.09-2-.14-2.92-.14a31.69,31.69,0,0,0-19.48,6.64Z" transform="translate(-118.89 -117.32)"/><path class="cls-1" d="M1537,516l-7.61,2.15a30.58,30.58,0,0,0-12.56,9.85c-15.48,27-31.56,53.73-48,80.26l0,0c-16.58,26.82-33.6,53.64-51,81.06l-3.44,5.41c-29.25,46-59.49,93.56-87.65,141.24h0q-3.27,5.55-6.52,11.12l-3.69,6.69a27.85,27.85,0,0,0-1.49,14.7,29.11,29.11,0,0,0,12.6,19.18,32,32,0,0,0,22.48,4.93l7.6-2.15a30.53,30.53,0,0,0,12.57-9.84q17.46-30,35.73-59.48h0c18.93-30.76,38.68-61.82,57.77-91.85l.45-.7,5.71-9c35.31-55.55,67-105.78,96.93-158.09l1.84-3.35,1.84-3.34a27.47,27.47,0,0,0,.73-17.95s0-.06,0-.08a29.39,29.39,0,0,0-11.82-15.83A32.15,32.15,0,0,0,1537,516Z" transform="translate(-118.89 -117.32)"/><path class="cls-1" d="M1462.75,841.77c-8,.35-16,.83-24,1.68a380.72,380.72,0,0,0-46.13,8.2c-30.15,7.07-59.62,16.57-89.78,23.62l-3.86,1.09a15.55,15.55,0,0,0-6.39,5,14.33,14.33,0,0,0-2.63,10.87,14.81,14.81,0,0,0,6.41,9.75,16.89,16.89,0,0,0,8.41,2.77l.1,0h.4a11,11,0,0,0,2.5-.27c15.34-3.59,30.7-7.85,45.56-12l.29-.08c11.4-3.16,23.18-6.42,34.85-9.35,5.72-1.44,11.07-2.7,16.37-3.87h.19c7.86-1.73,15.77-3.26,23.74-4.52a341.37,341.37,0,0,1,40.9-3.75,122.39,122.39,0,0,1,16.8.71c8.4,1,16.18-5.45,17-13.3a14.37,14.37,0,0,0-3.48-10.83,16.06,16.06,0,0,0-10.5-5.32,116.39,116.39,0,0,0-14-.75c-4.24,0-8.48.16-12.72.34Z" transform="translate(-118.89 -117.32)"/><path class="cls-1" d="M895.68,283.06A699.12,699.12,0,0,0,750.07,311.9a453.48,453.48,0,0,0-70.65,28.21l-3.56,2.1-3.41,2a29.05,29.05,0,0,0-9.26,12.4,27.64,27.64,0,0,0-1.86,10.08,27.93,27.93,0,0,0,1.15,7.94.76.76,0,0,0,0,.15,27.52,27.52,0,0,0,1.43,3.75A30.21,30.21,0,0,0,681.29,394l7.63,1.66a31.85,31.85,0,0,0,15.42-2.39,426.08,426.08,0,0,1,44.89-19.45l0,0c11.33-4.19,23.39-8.16,35.85-11.79a676.17,676.17,0,0,1,155.12-23.69c6.13-.14,12.31-.22,18.41-.22h2.35a896.09,896.09,0,0,1,185.16,19.5,851.75,851.75,0,0,1,190.52,66.62,810.18,810.18,0,0,1,85.73,50.11c14,9.36,28.11,19.56,42.06,30.31,5.36,4.14,13.42,10.35,21.46,16.45,2.26,1.72,4.68,3.57,7.09,5.49,3.51,2.75,7,5.54,10.38,8.43a151.62,151.62,0,0,1,14.3,15c10.26,12.51,30.45,13.86,43.07,4a29,29,0,0,0,10.61-17l0-.1a21.79,21.79,0,0,0,.38-2.52c.77-7.55-1.58-14.91-6.81-21.28-9.07-11.06-19.93-20.49-30.33-29-6-4.95-12.31-9.7-18.43-14.31l-1.19-.9c-2.89-2.18-5.78-4.36-8.65-6.58-21.22-16.4-39.3-29.4-56.89-40.93a858.8,858.8,0,0,0-261.63-113.51,940.06,940.06,0,0,0-145.69-24.33c-23.06-2-47-3.06-71.26-3.22l-6.37,0c-24.53,0-47,.92-68.74,2.84Z" transform="translate(-118.89 -117.32)"/><path class="cls-1" d="M687.5,351.31a28.85,28.85,0,0,0-11,19.67c-.74,7.28,1.49,15.82,6.84,21.31q20.86,21.46,43.34,41.4v0h0a817,817,0,0,0,166.07,114.2A887.43,887.43,0,0,0,1017.07,601a905.73,905.73,0,0,0,132.23,33.24c21,3.68,42.85,6.63,64.93,8.78,24.52,2.38,45.9,3.57,65.37,3.65h1.92a490.39,490.39,0,0,0,69.61-4.8c21.95-3.14,45.09-8.43,70.75-16.14a400.63,400.63,0,0,0,39-14q11.07-4.68,21.8-10c11.65-5.82,22.92-12.37,33.94-19.21a298.85,298.85,0,0,0,27-18.94,28.42,28.42,0,0,0,4.18-41c-10.6-12.25-30.21-14.07-43.08-4q-5.52,4.33-11.26,8.41l0,0c-6,4.3-12.43,8.5-19,12.49a380.17,380.17,0,0,1-80.92,34.08,442.8,442.8,0,0,1-98.6,15.12c-3,.06-6,.08-9,.08-22.3,0-46.56-1.5-76.34-4.71a860.54,860.54,0,0,1-85-13.61,846.76,846.76,0,0,1-189.6-66.55A803.21,803.21,0,0,1,769.53,392.67c-6.41-5.75-12.65-11.51-18.57-17.19q-10.38-9.92-20.39-20.19c-2-1.78-4-3.54-6-5.31a31.42,31.42,0,0,0-14.66-5.17c-1-.08-1.95-.13-2.92-.13a31.76,31.76,0,0,0-19.48,6.63Z" transform="translate(-118.89 -117.32)"/><path d="M360.36,623.31a1.49,1.49,0,1,0,1.49-1.49,1.51,1.51,0,0,0-1.49,1.49Z" transform="translate(-118.89 -117.32)"/><path class="cls-2" d="M1009.2,118.21A964.35,964.35,0,0,0,880,132.88,893.11,893.11,0,0,0,762.2,162.66a955.54,955.54,0,0,0-116.39,46.83,899.29,899.29,0,0,0-103.38,58.27A966.86,966.86,0,0,0,443.57,342a906.43,906.43,0,0,0-84.41,82.24,968.7,968.7,0,0,0-76.61,97,901.58,901.58,0,0,0-60.89,101.67A957.15,957.15,0,0,0,172,737.82,894,894,0,0,0,139.16,854.4a964.18,964.18,0,0,0-17.92,128.17,913.94,913.94,0,0,0-.34,126A963.21,963.21,0,0,0,138.17,1237a893.42,893.42,0,0,0,32.25,116.84,932.27,932.27,0,0,0,666.49,600.55,971.18,971.18,0,0,0,107.54,18.39,907.59,907.59,0,0,0,105.14,6.1h.15q31.5,0,62.94-2.18c22.65-1.54,45.17-4.17,67.66-7.2a897,897,0,0,0,119.76-24.75c40.53-11.26,79.93-25.77,118.61-42.27a896.62,896.62,0,0,0,106-54c35.55-21.11,69.27-44.93,101.81-70.41a905.35,905.35,0,0,0,87.77-78.66c28.89-29.43,55.38-61,80.28-93.83a900.86,900.86,0,0,0,65-98.84c20.61-36.21,38.29-73.93,54-112.5a892.84,892.84,0,0,0,37.7-114.48c10.7-41.57,18-83.86,23-126.46a908.83,908.83,0,0,0,5.87-125.5c-.9-43.54-5.27-86.93-12-129.94a893.13,893.13,0,0,0-27.28-118.81,953.23,953.23,0,0,0-44.56-117.51,897.9,897.9,0,0,0-56.14-104.73,964.22,964.22,0,0,0-72.34-100.34,906.17,906.17,0,0,0-80.47-86.11A968.35,968.35,0,0,0,1592,291.9a903.13,903.13,0,0,0-100.28-63A957.25,957.25,0,0,0,1378,177.1a893.79,893.79,0,0,0-115.55-35.29,957.63,957.63,0,0,0-127.32-20.48q-42.36-4.06-85-4-20.47,0-40.92.89Zm-76.12,1791a903.55,903.55,0,0,1-220.53-60.17,909.11,909.11,0,0,1-193.42-113,915.85,915.85,0,0,1-157.49-157.5,909.68,909.68,0,0,1-113-193.35,903.12,903.12,0,0,1-60.18-220.54,917.24,917.24,0,0,1,0-233.18,903.38,903.38,0,0,1,60.24-220.67,909.23,909.23,0,0,1,112.76-193A916.17,916.17,0,0,1,519.12,360.11a909.71,909.71,0,0,1,193.42-113,903.3,903.3,0,0,1,221-60.24,916.61,916.61,0,0,1,232.24,0,903.75,903.75,0,0,1,221,60.25A909.64,909.64,0,0,1,1580.4,360.26a916.27,916.27,0,0,1,157.42,157.52,909.06,909.06,0,0,1,112.77,193.05,903.69,903.69,0,0,1,60.23,220.65,916.48,916.48,0,0,1,0,233.2,903.52,903.52,0,0,1-60.17,220.52,909.55,909.55,0,0,1-113,193.36A915.83,915.83,0,0,1,1580.4,1735.9a909.68,909.68,0,0,1-193.62,113.17,903.82,903.82,0,0,1-220.6,60.18,908.74,908.74,0,0,1-233.1,0Z" transform="translate(-118.89 -117.32)"/><path class="cls-2" d="M637.51,731.15h0a161.67,161.67,0,0,0-30,4.72,174.78,174.78,0,0,0-32.68,14,170.88,170.88,0,0,0-28,21.88,148.45,148.45,0,0,0-18.37,24.55,126.65,126.65,0,0,0-9.11,23.27A115.42,115.42,0,0,0,517,841.77a134.82,134.82,0,0,0,4.76,27,175.43,175.43,0,0,0,16.71,34.74,266.26,266.26,0,0,0,41,46.36,396.32,396.32,0,0,0,77.57,51.63c18.81,9.14,38.51,17.09,57.57,24.77l.47.19c93.38,37.7,186.58,66.92,277,86.85,83.38,17.83,158.11,26.5,228.46,26.5,6.56,0,13.2-.07,19.75-.23,50.36-1.79,97.24-8.54,139.35-20a425.28,425.28,0,0,0,91.72-38.63,344.68,344.68,0,0,0,63-48.48,165,165,0,0,0,21.18-28.26,138.42,138.42,0,0,0,10.16-25.86,115.67,115.67,0,0,0,2.33-21.8,103.32,103.32,0,0,0-3.18-18.91,105.22,105.22,0,0,0-8.12-17.19,120.9,120.9,0,0,0-15-17.19,129.35,129.35,0,0,0-20.07-13.54,145.19,145.19,0,0,0-25.21-8.65c-13.65-2.58-28.32-3.78-46.17-3.78-2.94,0-5.95,0-9.21.1-9,.33-18.1.83-26.89,1.32l-.48,0-9,.49c-5.29,1.16-10.65,2.43-16.37,3.87-11.67,2.93-23.45,6.19-34.85,9.35l-.29.08c-14.86,4.12-30.22,8.38-45.56,12a10.89,10.89,0,0,1-2.5.27h-.4c-12.29,3.42-24.53,6.37-36.39,8.77A634.29,634.29,0,0,1,1162,925.41c-11.8.36-22.28.53-32.07.53s-18.74-.17-27.38-.51c-17.27-.67-34.17-1.89-50.23-3.63-26.88-2.9-53.39-6.68-78.81-11.22-33.69-6-62.85-12.72-89.16-20.49-14.65-4.34-27.85-8.79-40.33-13.62a474.76,474.76,0,0,1-44.49-20.07,300.88,300.88,0,0,1-35-20.63,283.73,283.73,0,0,1-36-29.61,190.73,190.73,0,0,1-25-29.38c-9.25-13.62-15.82-25.25-20.66-36.62a134.26,134.26,0,0,0-19.93-6.74,144.79,144.79,0,0,0-25.56-2.27Z" transform="translate(-118.89 -117.32)"/><path class="cls-2" d="M726.68,433.67h0c3.76,45.51,9.75,90.13,15.11,127.78,2,14.16,4.13,28.58,6.18,42.52l.35,2.4.17,1.14c2.34,15.93,4.76,32.4,7,48.6,2.56,18,4.59,33.06,6.38,47.26l.7,5.51c1.72,13.47,3.5,27.41,4.44,41.34A27.68,27.68,0,0,1,767,760c4,4.39,8.32,8.74,12.86,12.91,15.21,12.92,33.29,24.79,53.73,35.28,33,16,71.32,28.7,117.27,38.93,8.9,1.88,18,3.65,27,5.27,25.68,4.61,52.09,8.41,78.49,11.3a750.84,750.84,0,0,0,81,4.39c6,0,12-.07,17.88-.21,49.08-1.74,94.55-8.24,135.13-19.32,12.76-3.75,25-8,36.47-12.6,28.16-47.68,58.4-95.24,87.65-141.24l3.44-5.41c17.43-27.42,34.45-54.25,51-81.06a397.62,397.62,0,0,1-47,17.5c-25.66,7.72-48.8,13-70.75,16.15a490.39,490.39,0,0,1-69.61,4.8h-1.92c-19.47-.08-40.85-1.27-65.37-3.65-22.08-2.15-43.92-5.1-64.92-8.78A904.27,904.27,0,0,1,1017.07,601a886.17,886.17,0,0,1-124.31-53.14,817,817,0,0,1-166.07-114.2Z" transform="translate(-118.89 -117.32)"/><path class="cls-2" d="M960.94,338.07h-2.35c-6.1,0-12.28.08-18.42.22A675.63,675.63,0,0,0,785.06,362c-12.46,3.63-24.52,7.6-35.85,11.78,6.44,6.23,13.27,12.58,20.32,18.88A802.85,802.85,0,0,0,935.07,503.91a846.67,846.67,0,0,0,189.61,66.55,860.34,860.34,0,0,0,85,13.61c29.78,3.21,54,4.71,76.34,4.71q4.52,0,9-.08a443.37,443.37,0,0,0,98.6-15.11,380.48,380.48,0,0,0,80.92-34.09c6.54-4,12.93-8.2,19-12.49-2.6-2.09-5.22-4.1-7.67-6-8-6.1-16.1-12.31-21.47-16.45-13.94-10.75-28.09-20.95-42.05-30.32a811.82,811.82,0,0,0-85.73-50.1,851.75,851.75,0,0,0-190.52-66.62,896.09,896.09,0,0,0-185.16-19.5Z" transform="translate(-118.89 -117.32)"/><path class="cls-2" d="M934.51,195.75a904.48,904.48,0,0,0-218.45,59.59,909.56,909.56,0,0,0-191.38,111.8A915.7,915.7,0,0,0,368.87,522.91,909.11,909.11,0,0,0,256.92,714.49a903.09,903.09,0,0,0-59.57,218.43,917.84,917.84,0,0,0,0,230.31,904.25,904.25,0,0,0,59.58,218.45,909.36,909.36,0,0,0,111.94,191.55A916,916,0,0,0,524.69,1729a909.41,909.41,0,0,0,191.39,111.8,903.79,903.79,0,0,0,218.12,59.52,909.32,909.32,0,0,0,230.92,0,903.72,903.72,0,0,0,218.28-59.59,909.1,909.1,0,0,0,191.42-111.89,916.07,916.07,0,0,0,155.64-155.63A909.51,909.51,0,0,0,1842.27,1382a903.16,903.16,0,0,0,59.7-218.76,917.37,917.37,0,0,0,0-230.31,903.52,903.52,0,0,0-59.71-218.74,909.41,909.41,0,0,0-111.82-191.27,916.07,916.07,0,0,0-155.63-155.64A909.37,909.37,0,0,0,1383.39,255.4a903.37,903.37,0,0,0-218.57-59.63,918.15,918.15,0,0,0-230.31,0ZM697.59,683c-.94-7.15-1.94-14.25-3-21.36-2-14.15-4.07-28.13-6.34-43.62l-.3-2.05-.1-.65c-2.19-14.9-4.67-31.79-7-48.34-3.67-25.94-8.34-60.17-11.89-94.87-3.35-32.5-5.53-65.28-6.51-97.42a27.93,27.93,0,0,1-1.15-7.94,27.64,27.64,0,0,1,1.86-10.08,29.05,29.05,0,0,1,9.26-12.4l3.41-2,3.56-2.1a453.48,453.48,0,0,1,70.65-28.21,699.12,699.12,0,0,1,145.61-28.84c21.72-1.92,44.21-2.84,68.74-2.84l6.37,0c24.23.16,48.2,1.24,71.26,3.22a940.06,940.06,0,0,1,145.69,24.33A858.8,858.8,0,0,1,1449.37,421.3c17.59,11.53,35.67,24.53,56.89,40.93,2.87,2.22,5.76,4.4,8.65,6.58l1.19.9c6.12,4.61,12.41,9.36,18.43,14.31,10.4,8.54,21.26,18,30.33,29,5.23,6.37,7.58,13.73,6.81,21.28a21.79,21.79,0,0,1-.38,2.52,27.47,27.47,0,0,1-.73,17.95l-1.84,3.34-1.84,3.35c-30,52.31-61.62,102.54-96.93,158.09l-5.71,9-.45.7c-19.09,30-38.84,61.09-57.77,91.85l.28,0c8.91-.48,17.24-.94,25.61-1.21,9-.3,17.09-.55,25.35-.55,8.56,0,16.11.28,23.1.86a188.61,188.61,0,0,1,22.33,3c9.3,1.85,17.68,3.6,25.94,6.34a185.2,185.2,0,0,1,24.66,10.67,121.22,121.22,0,0,1,18.24,11.15c5.3,4,10.12,8.25,14.61,12.28,2.12,1.9,4.87,4.42,7.43,7.15a109.66,109.66,0,0,1,12.15,15.13l.67,1c4.48,6.88,9.12,14,12.34,21.69a143.3,143.3,0,0,1,7.32,22.59,96.82,96.82,0,0,1,2.57,18.62l0,.8c.27,7.42.55,15.08-.33,22.59a161,161,0,0,1-5,24.61,128.53,128.53,0,0,1-5.91,17.07,199.48,199.48,0,0,1-12.06,23.23,155.93,155.93,0,0,1-10.67,15.74c-8.22,10.56-18.11,20.89-31.15,32.54a360.64,360.64,0,0,1-41.29,31.84,31,31,0,0,1,6.14,8.61l1.15,3.69,1.11,3.54q1.83,7.92,3.65,15.85c8.64,37.83,15.34,69.7,20,102.28,2.7,18.88,4.44,35.9,5.33,52,1.24,22.62,1.32,41.07.24,58.07a381.53,381.53,0,0,1-6.44,48.83c-3.29,17-7.36,34.45-12.1,51.86-1.56,5.69-3.21,11.45-4.91,17.12a11.15,11.15,0,0,0,1.14,0h1.16c3.07,0,6,.07,8.81.21,4.53.22,9.39.6,15.28,1.21a126.85,126.85,0,0,1,2.34-14.5c2.1-9.44,4.61-19.53,8.65-29.29A198.56,198.56,0,0,1,1588,1410.3c9.1-14.85,21.08-29,36.64-43.37,13.23-12.19,28.8-23,47.58-33.21,16.13-8.72,33.8-15.35,54-20.26a170.08,170.08,0,0,1,24.65-4.2c7.4-.69,14.2-1,20.78-1,3.71,0,7.32.11,10.74.33a179.18,179.18,0,0,1,29.68,4.69,176.75,176.75,0,0,0-23.11-25.62,28,28,0,0,1-5.1-28.53,29.19,29.19,0,0,1,9.27-12.39l6.68-4,.28-.17a213.6,213.6,0,0,1,25.07-7.14,123.4,123.4,0,0,1,17.5-2.57c5.57-.41,10.26-.59,14.76-.59,3.19,0,6.12.1,8.94.3,1.56.11,3.24.27,5.14.52l.42-1.82a884.66,884.66,0,0,1-46.22,146.39q-.72,1.69-1.47,3.39c-2.42-1.58-5.06-3.14-7.82-4.64a132,132,0,0,0-22.48-7.86,147.53,147.53,0,0,0-26.6-2.38h-.18a174.53,174.53,0,0,0-33.58,5.31,200.63,200.63,0,0,0-39.15,16.86,204.32,204.32,0,0,0-34.94,27.3,174.82,174.82,0,0,0-22.89,30.55,142.9,142.9,0,0,0-10.88,27.7,124.55,124.55,0,0,0-2.61,25.08,109.66,109.66,0,0,0,3.35,20.86,116.89,116.89,0,0,0,10.21,21.17,169.4,169.4,0,0,0,24,27.25,237.35,237.35,0,0,0,33.72,23.67l-.14.15c-6.09,7.17-12.27,14.23-18.35,21,1.32-1.45,2.65-2.91,4-4.39-8.44,9.46-17.09,18.79-25.83,27.81a231.17,231.17,0,0,1-28.4-20.53c-11.86-10.08-26.93-23.86-38.24-40.94-5.55-8.41-10.86-16.73-14.69-25.92-1-2.49-2-5.18-3-8.2l-1.12-.16-.17,0c-11.45-1.3-23.2-2.64-34.86-2.66a110,110,0,0,0-18.5,2.67l-.4,0c-1.91,4.46-3.84,8.86-5.73,13.1-7,15.59-15.11,31.46-24.73,48.53-7.78,13.78-16.7,27.28-24.45,38.85l-2.46,3.67c-7.54,11.26-15.34,22.9-24,33.82a283.06,283.06,0,0,1-20,22.4,134.22,134.22,0,0,1-16.71,14.69,32.83,32.83,0,0,1-19.45,6.62,25.86,25.86,0,0,1-2.92-.14,31.19,31.19,0,0,1-20.63-10.45A28.61,28.61,0,0,1,1347,1690a26.91,26.91,0,0,1,10.84-19,130.71,130.71,0,0,0,13.72-11.7c12.58-13.57,23.16-28.94,33.78-44.81l4.67-6.9c3.53-5.2,7.54-11.1,11.28-17,4.51-7,9-14.5,13.28-22.18,22.85-42.33,40.75-89.48,53.21-140.13a465.4,465.4,0,0,0,9.46-51.15,394.16,394.16,0,0,0,2.46-55.93c-2.38-57.34-14.29-112.65-28.44-173.85-10.61,5-21.15,9.56-31.34,13.46a533,533,0,0,1-73.78,22c-45,10.06-94.12,14.94-150,14.94h-2.83c-48.57-.14-100.44-4.5-154.18-13a1515.09,1515.09,0,0,1-158.62-34.14c-47-12.69-94.59-27.74-141.55-44.73-21.91-7.93-43.34-16.12-63.7-24.33-10.67-4.32-20.35-8.32-29.56-12.23l-.32-.14-.14-.06c-10-4.27-20.43-8.67-30.46-13.62l-4.91-2.44c-1.72,1.54-3.49,3.2-5.42,5.1-13.68,14.61-25.93,31.62-37.45,52-17.54,32.69-31.15,69.2-41.61,111.63-4.31,18.45-7.71,37-10.12,55.1-2,15.16-4.26,35.13-4,55.13A282.7,282.7,0,0,0,543,1398.62a363,363,0,0,0,38.93,81.58c4.51,6.75,9.22,13.28,13.64,19.34a28.41,28.41,0,0,1,6.57,13.83l.12,3.5.11,3.49v.42a28.79,28.79,0,0,1-11,19.66,31.58,31.58,0,0,1-19.44,6.61c-1,0-2,0-2.91-.13a31.67,31.67,0,0,1-14.64-5.14l-4.08-3.62-1.92-1.69a511.75,511.75,0,0,1-35-54.25,269.14,269.14,0,0,0-8.05,26.31,309.7,309.7,0,0,0-7.59,74,279.19,279.19,0,0,0,11,66.22,234.36,234.36,0,0,0,11.77,29.17,255.44,255.44,0,0,0,14.83,26.16,384.81,384.81,0,0,0,25.38,34.21c-9.37-6.67-18.54-13.41-27.23-20A892.09,892.09,0,0,1,443,1637c-1.18-5.63-2.18-11.33-3-16.93a347.74,347.74,0,0,1-3.18-44.84,309.81,309.81,0,0,1,8.46-76.06c2.84-11.87,6.85-27.46,12.65-42.75a281.61,281.61,0,0,1,15.47-33.88,29.18,29.18,0,0,1,9.27-12.4l.43-.26c-1-3.47-1.95-6.86-2.83-10.07a284.48,284.48,0,0,1-8-41.3c-.8-7-1.33-14-1.56-20.88-.31-8.8-.57-18.17-.06-27.52.52-10.1,1.46-20.74,2.78-31.63a636.39,636.39,0,0,1,13.9-74.43,539.6,539.6,0,0,1,21.72-69.4A429.45,429.45,0,0,1,544,1064.71a273.7,273.7,0,0,1,32.57-42.39c-5.67-3.94-11-7.8-15.82-11.49a404.32,404.32,0,0,1-36-31,258.11,258.11,0,0,1-26.88-30.12c-5-6.69-10-13.94-15.07-22.16a185.09,185.09,0,0,1-9.05-16.19,157.21,157.21,0,0,1-7.63-18.22A208.08,208.08,0,0,1,459.36,870a126.18,126.18,0,0,1-2.73-19,165,165,0,0,1-.24-22,111.5,111.5,0,0,1,2.38-16.65,184.28,184.28,0,0,1,5.64-20.86,127.7,127.7,0,0,1,6.64-15.36,210.07,210.07,0,0,1,10.89-19c6.5-9.76,14.65-19.29,25.68-30a166.18,166.18,0,0,1,26.18-20.83c13.82-8.79,24.88-14.66,35.85-19,5.47-2.16,11.09-4.07,16.69-5.7,7.22-2.07,14.57-4.18,22.09-5.55a153.15,153.15,0,0,1,17.42-2.21c6.44-.43,11.72-.62,16.61-.62,2.41,0,4.32,0,6,.11a167.35,167.35,0,0,1,39.6,6.51c3.1.9,6.28,1.94,9.47,3.11h0ZM360.36,623.31a1.49,1.49,0,1,1,1.49,1.5,1.51,1.51,0,0,1-1.49-1.5Z" transform="translate(-118.89 -117.32)"/><path class="cls-1" d="M1049.67,179.47a921.17,921.17,0,0,0-116.16,7.39,903.35,903.35,0,0,0-221,60.24,909.71,909.71,0,0,0-193.42,113A915.87,915.87,0,0,0,361.5,517.79a909.17,909.17,0,0,0-112.76,193A903.26,903.26,0,0,0,188.5,931.49a917.32,917.32,0,0,0,0,233.19,903.61,903.61,0,0,0,60.18,220.53,909.68,909.68,0,0,0,113,193.35,915.85,915.85,0,0,0,157.49,157.5,909.11,909.11,0,0,0,193.42,113,903.55,903.55,0,0,0,220.53,60.17,908.74,908.74,0,0,0,233.1,0,903.82,903.82,0,0,0,220.6-60.18A909.68,909.68,0,0,0,1580.4,1735.9a916.19,916.19,0,0,0,157.28-157.34,909.55,909.55,0,0,0,113-193.36,903.52,903.52,0,0,0,60.17-220.52,916.48,916.48,0,0,0,0-233.2,903.25,903.25,0,0,0-60.23-220.65,909.17,909.17,0,0,0-112.77-193,916,916,0,0,0-157.43-157.53A908.9,908.9,0,0,0,1386.78,247.1a903.75,903.75,0,0,0-221-60.25,921.22,921.22,0,0,0-116.09-7.38Zm0,1728.24a930.84,930.84,0,0,1-115.45-7.36,903.16,903.16,0,0,1-218.13-59.52A909.84,909.84,0,0,1,524.69,1729a916.3,916.3,0,0,1-155.83-155.79,910.11,910.11,0,0,1-111.94-191.56,904.38,904.38,0,0,1-59.58-218.45,917.76,917.76,0,0,1,0-230.3,903.16,903.16,0,0,1,59.57-218.44,909.11,909.11,0,0,1,112-191.58A916.07,916.07,0,0,1,524.68,367.14a909.13,909.13,0,0,1,191.38-111.8,903.55,903.55,0,0,1,218.45-59.58,918.07,918.07,0,0,1,230.3,0,903.68,903.68,0,0,1,218.58,59.64,909.8,909.8,0,0,1,191.43,111.87,916.07,916.07,0,0,1,155.63,155.64,909.41,909.41,0,0,1,111.82,191.27A903.47,903.47,0,0,1,1902,932.93a917.29,917.29,0,0,1,0,230.3,903,903,0,0,1-59.7,218.76,909.83,909.83,0,0,1-111.81,191.26,916,916,0,0,1-155.64,155.62,908.67,908.67,0,0,1-191.42,111.89,903.72,903.72,0,0,1-218.28,59.59,931.12,931.12,0,0,1-115.46,7.36Z" transform="translate(-118.89 -117.32)"/></svg>